<svg width="127" height="32" viewBox="0 0 127 32" fill="none" xmlns="http://www.w3.org/2000/svg">
<path d="M7.512 22.16L10.416 12.608H14.784L10.032 26H4.968L0.216 12.608H4.608L7.512 22.16ZM22.6778 26.192C21.3658 26.192 20.1818 25.912 19.1258 25.352C18.0858 24.792 17.2618 23.992 16.6538 22.952C16.0618 21.912 15.7658 20.696 15.7658 19.304C15.7658 17.928 16.0698 16.72 16.6777 15.68C17.2858 14.624 18.1178 13.816 19.1738 13.256C20.2298 12.696 21.4138 12.416 22.7258 12.416C24.0378 12.416 25.2218 12.696 26.2778 13.256C27.3338 13.816 28.1658 14.624 28.7738 15.68C29.3818 16.72 29.6858 17.928 29.6858 19.304C29.6858 20.68 29.3738 21.896 28.7498 22.952C28.1418 23.992 27.3018 24.792 26.2298 25.352C25.1738 25.912 23.9898 26.192 22.6778 26.192ZM22.6778 22.64C23.4618 22.64 24.1258 22.352 24.6698 21.776C25.2298 21.2 25.5098 20.376 25.5098 19.304C25.5098 18.232 25.2378 17.408 24.6938 16.832C24.1658 16.256 23.5098 15.968 22.7258 15.968C21.9258 15.968 21.2618 16.256 20.7338 16.832C20.2058 17.392 19.9418 18.216 19.9418 19.304C19.9418 20.376 20.1978 21.2 20.7098 21.776C21.2378 22.352 21.8938 22.64 22.6778 22.64ZM38.0293 26.192C36.7173 26.192 35.5333 25.912 34.4773 25.352C33.4373 24.792 32.6133 23.992 32.0053 22.952C31.4133 21.912 31.1173 20.696 31.1173 19.304C31.1173 17.928 31.4213 16.72 32.0293 15.68C32.6373 14.624 33.4693 13.816 34.5253 13.256C35.5813 12.696 36.7653 12.416 38.0773 12.416C39.3893 12.416 40.5733 12.696 41.6293 13.256C42.6853 13.816 43.5173 14.624 44.1253 15.68C44.7333 16.72 45.0373 17.928 45.0373 19.304C45.0373 20.68 44.7253 21.896 44.1013 22.952C43.4933 23.992 42.6533 24.792 41.5813 25.352C40.5253 25.912 39.3413 26.192 38.0293 26.192ZM38.0293 22.64C38.8133 22.64 39.4773 22.352 40.0213 21.776C40.5813 21.2 40.8613 20.376 40.8613 19.304C40.8613 18.232 40.5893 17.408 40.0453 16.832C39.5173 16.256 38.8613 15.968 38.0773 15.968C37.2773 15.968 36.6133 16.256 36.0853 16.832C35.5573 17.392 35.2933 18.216 35.2933 19.304C35.2933 20.376 35.5493 21.2 36.0613 21.776C36.5893 22.352 37.2453 22.64 38.0293 22.64ZM51.3889 14.84C51.8689 14.104 52.4689 13.528 53.1889 13.112C53.9089 12.68 54.7089 12.464 55.5889 12.464V16.808H54.4609C53.4369 16.808 52.6689 17.032 52.1569 17.48C51.6449 17.912 51.3889 18.68 51.3889 19.784V26H47.2849V12.608H51.3889V14.84ZM56.8048 19.28C56.8048 17.904 57.0608 16.696 57.5728 15.656C58.1008 14.616 58.8128 13.816 59.7088 13.256C60.6048 12.696 61.6048 12.416 62.7088 12.416C63.5888 12.416 64.3888 12.6 65.1088 12.968C65.8448 13.336 66.4208 13.832 66.8368 14.456V8.24H70.9408V26H66.8368V24.08C66.4528 24.72 65.9008 25.232 65.1808 25.616C64.4768 26 63.6528 26.192 62.7088 26.192C61.6048 26.192 60.6048 25.912 59.7088 25.352C58.8128 24.776 58.1008 23.968 57.5728 22.928C57.0608 21.872 56.8048 20.656 56.8048 19.28ZM66.8368 19.304C66.8368 18.28 66.5488 17.472 65.9728 16.88C65.4128 16.288 64.7248 15.992 63.9088 15.992C63.0928 15.992 62.3968 16.288 61.8208 16.88C61.2608 17.456 60.9808 18.256 60.9808 19.28C60.9808 20.304 61.2608 21.12 61.8208 21.728C62.3968 22.32 63.0928 22.616 63.9088 22.616C64.7248 22.616 65.4128 22.32 65.9728 21.728C66.5488 21.136 66.8368 20.328 66.8368 19.304ZM86.6042 19.088C86.6042 19.472 86.5802 19.872 86.5322 20.288H77.2442C77.3082 21.12 77.5722 21.76 78.0362 22.208C78.5162 22.64 79.1002 22.856 79.7882 22.856C80.8122 22.856 81.5242 22.424 81.9242 21.56H86.2922C86.0682 22.44 85.6602 23.232 85.0682 23.936C84.4922 24.64 83.7642 25.192 82.8842 25.592C82.0042 25.992 81.0202 26.192 79.9322 26.192C78.6202 26.192 77.4522 25.912 76.4282 25.352C75.4042 24.792 74.6042 23.992 74.0282 22.952C73.4522 21.912 73.1642 20.696 73.1642 19.304C73.1642 17.912 73.4442 16.696 74.0042 15.656C74.5802 14.616 75.3802 13.816 76.4042 13.256C77.4282 12.696 78.6042 12.416 79.9322 12.416C81.2282 12.416 82.3802 12.688 83.3882 13.232C84.3962 13.776 85.1802 14.552 85.7402 15.56C86.3162 16.568 86.6042 17.744 86.6042 19.088ZM82.4042 18.008C82.4042 17.304 82.1642 16.744 81.6842 16.328C81.2042 15.912 80.6042 15.704 79.8842 15.704C79.1962 15.704 78.6122 15.904 78.1322 16.304C77.6682 16.704 77.3802 17.272 77.2682 18.008H82.4042Z" fill="#EDEDED"/>
<path d="M91.408 26.192C90.688 26.192 90.096 25.984 89.632 25.568C89.184 25.136 88.96 24.608 88.96 23.984C88.96 23.344 89.184 22.808 89.632 22.376C90.096 21.944 90.688 21.728 91.408 21.728C92.112 21.728 92.688 21.944 93.136 22.376C93.6 22.808 93.832 23.344 93.832 23.984C93.832 24.608 93.6 25.136 93.136 25.568C92.688 25.984 92.112 26.192 91.408 26.192ZM95.5158 19.28C95.5158 17.904 95.7718 16.696 96.2838 15.656C96.8118 14.616 97.5238 13.816 98.4198 13.256C99.3158 12.696 100.316 12.416 101.42 12.416C102.3 12.416 103.1 12.6 103.82 12.968C104.556 13.336 105.132 13.832 105.548 14.456V8.24H109.652V26H105.548V24.08C105.164 24.72 104.612 25.232 103.892 25.616C103.188 26 102.364 26.192 101.42 26.192C100.316 26.192 99.3158 25.912 98.4198 25.352C97.5238 24.776 96.8118 23.968 96.2838 22.928C95.7718 21.872 95.5158 20.656 95.5158 19.28ZM105.548 19.304C105.548 18.28 105.26 17.472 104.684 16.88C104.124 16.288 103.436 15.992 102.62 15.992C101.804 15.992 101.108 16.288 100.532 16.88C99.9718 17.456 99.6918 18.256 99.6918 19.28C99.6918 20.304 99.9718 21.12 100.532 21.728C101.108 22.32 101.804 22.616 102.62 22.616C103.436 22.616 104.124 22.32 104.684 21.728C105.26 21.136 105.548 20.328 105.548 19.304ZM120.875 26L116.795 20.384V26H112.691V8.24H116.795V18.056L120.851 12.608H125.915L120.347 19.328L125.963 26H120.875Z" fill="#00FF88"/>
</svg>
